<svg width="75" height="21" viewBox="0 0 75 21" fill="none" xmlns="http://www.w3.org/2000/svg">
<path d="M9.62703 12.6C9.48037 13.2 9.24703 13.7333 8.92703 14.2C8.60703 14.6667 8.22036 15.06 7.76703 15.38C7.3137 15.7 6.8137 15.94 6.26703 16.1C5.72036 16.2733 5.14703 16.36 4.54703 16.36C3.78703 16.36 3.12703 16.24 2.56703 16C2.00703 15.7467 1.5337 15.4133 1.14703 15C0.773698 14.5867 0.493698 14.1133 0.307031 13.58C0.120365 13.0467 0.0270313 12.4933 0.0270313 11.92C0.0270313 11.48 0.0803646 11.0333 0.187031 10.58C0.307031 10.1267 0.480365 9.70667 0.707031 9.32C0.933698 8.92 1.2137 8.57333 1.54703 8.28C1.8937 7.98667 2.2937 7.78 2.74703 7.66C2.10703 7.26 1.64036 6.8 1.34703 6.28C1.06703 5.76 0.927031 5.21333 0.927031 4.64C0.927031 4.18667 1.0137 3.74 1.18703 3.3C1.36036 2.84667 1.6137 2.45333 1.94703 2.12C2.2937 1.77333 2.7137 1.49333 3.20703 1.28C3.7137 1.06667 4.28703 0.959999 4.92703 0.959999C5.3137 0.959999 5.68037 1.00667 6.02703 1.1C6.3737 1.18 6.68036 1.32 6.94703 1.52C7.2137 1.72 7.42703 1.98 7.58703 2.3C7.74703 2.60667 7.82703 2.98667 7.82703 3.44C7.82703 3.90667 7.74036 4.31333 7.56703 4.66C7.3937 5.00667 7.1337 5.18 6.78703 5.18C6.64037 5.18 6.48037 5.14667 6.30703 5.08C6.1337 5 5.9537 4.86667 5.76703 4.68C5.9537 4.61333 6.10036 4.44667 6.20703 4.18C6.32703 3.9 6.38703 3.62 6.38703 3.34C6.38703 3.08667 6.34037 2.88 6.24703 2.72C6.16703 2.56 6.06036 2.44 5.92703 2.36C5.7937 2.26667 5.6537 2.20667 5.50703 2.18C5.36037 2.15333 5.22703 2.14 5.10703 2.14C4.8137 2.14 4.56036 2.2 4.34703 2.32C4.1337 2.44 3.96036 2.6 3.82703 2.8C3.6937 3 3.5937 3.23333 3.52703 3.5C3.46036 3.76667 3.42703 4.04 3.42703 4.32C3.42703 4.69333 3.48036 5.05333 3.58703 5.4C3.6937 5.74667 3.8537 6.06667 4.06703 6.36C4.2937 6.65333 4.5737 6.91333 4.90703 7.14C5.24036 7.35333 5.6337 7.52 6.08703 7.64C5.66036 7.74667 5.28036 7.94 4.94703 8.22C4.6137 8.48667 4.3337 8.81333 4.10703 9.2C3.8937 9.57333 3.72703 9.98 3.60703 10.42C3.50036 10.86 3.44703 11.2867 3.44703 11.7C3.44703 12.06 3.4937 12.4067 3.58703 12.74C3.68036 13.0733 3.82036 13.3667 4.00703 13.62C4.20703 13.86 4.4537 14.06 4.74703 14.22C5.0537 14.3667 5.42036 14.44 5.84703 14.44C6.16703 14.44 6.50036 14.3933 6.84703 14.3C7.1937 14.2067 7.5137 14.0733 7.80703 13.9C8.1137 13.7267 8.38036 13.5133 8.60703 13.26C8.84703 13.0067 9.02037 12.72 9.12703 12.4L9.62703 12.6ZM14.3323 5.6C15.0123 5.6 15.499 5.93333 15.7923 6.6C16.099 7.26667 16.2523 8.18667 16.2523 9.36C16.2523 10.12 16.1857 10.9 16.0523 11.7C15.919 12.5 15.6923 13.2267 15.3723 13.88C15.0523 14.5333 14.6257 15.0733 14.0923 15.5C13.5723 15.9133 12.919 16.12 12.1323 16.12C11.1723 16.12 10.4257 15.82 9.89234 15.22C9.35901 14.62 9.09234 13.8133 9.09234 12.8V6H11.9723V12.8C11.9723 13.28 12.039 13.6333 12.1723 13.86C12.3057 14.0733 12.5257 14.18 12.8323 14.18C13.219 14.18 13.5523 14.0267 13.8323 13.72C14.1123 13.4133 14.339 13.02 14.5123 12.54C14.699 12.06 14.8323 11.5267 14.9123 10.94C15.0057 10.3533 15.0523 9.78 15.0523 9.22C15.0523 8.60667 14.999 8.03333 14.8923 7.5C14.8657 7.56667 14.779 7.62 14.6323 7.66C14.4857 7.68667 14.3723 7.7 14.2923 7.7C14.1457 7.7 14.0123 7.66 13.8923 7.58C13.7857 7.5 13.6857 7.4 13.5923 7.28C13.5123 7.14667 13.4457 7.00667 13.3923 6.86C13.3523 6.71333 13.3323 6.57333 13.3323 6.44C13.3323 6.2 13.4123 6 13.5723 5.84C13.7457 5.68 13.999 5.6 14.3323 5.6ZM21.9336 14.44C22.3336 14.44 22.6869 14.3867 22.9936 14.28C23.3003 14.1733 23.5736 14.0333 23.8136 13.86C24.0536 13.6733 24.2736 13.46 24.4736 13.22C24.6736 12.9667 24.8669 12.7 25.0536 12.42H25.7336C25.5469 12.8867 25.3203 13.34 25.0536 13.78C24.8003 14.22 24.4803 14.6133 24.0936 14.96C23.7203 15.3067 23.2803 15.5867 22.7736 15.8C22.2669 16.0133 21.6736 16.12 20.9936 16.12C20.4203 16.12 19.8936 16.0333 19.4136 15.86C18.9336 15.6867 18.5136 15.42 18.1536 15.06C17.8069 14.6867 17.5336 14.2133 17.3336 13.64C17.1469 13.0533 17.0536 12.3533 17.0536 11.54C17.0536 10.9667 17.1136 10.3533 17.2336 9.7C17.3669 9.03333 17.5936 8.42 17.9136 7.86C18.2336 7.3 18.6669 6.83333 19.2136 6.46C19.7603 6.08667 20.4536 5.9 21.2936 5.9C21.9336 5.9 22.4269 6 22.7736 6.2C23.1203 6.4 23.3736 6.63333 23.5336 6.9C23.7069 7.16667 23.8069 7.42667 23.8336 7.68C23.8736 7.93333 23.8936 8.11333 23.8936 8.22C23.8936 8.82 23.7803 9.34667 23.5536 9.8C23.3403 10.2533 23.0469 10.64 22.6736 10.96C22.3136 11.2667 21.8936 11.5067 21.4136 11.68C20.9469 11.84 20.4669 11.9333 19.9736 11.96C19.9869 12.8533 20.1336 13.4933 20.4136 13.88C20.7069 14.2533 21.2136 14.44 21.9336 14.44ZM22.3536 8.24C22.3536 7.77333 22.2736 7.44667 22.1136 7.26C21.9536 7.06 21.7803 6.96 21.5936 6.96C21.3669 6.96 21.1603 7.07333 20.9736 7.3C20.7869 7.51333 20.6203 7.80667 20.4736 8.18C20.3403 8.54 20.2269 8.96667 20.1336 9.46C20.0536 9.95333 20.0003 10.4667 19.9736 11C20.3069 10.9733 20.6203 10.8867 20.9136 10.74C21.2069 10.58 21.4603 10.38 21.6736 10.14C21.8869 9.88667 22.0536 9.6 22.1736 9.28C22.2936 8.96 22.3536 8.61333 22.3536 8.24ZM27.9294 6V7.24C28.2227 6.89333 28.5494 6.58667 28.9094 6.32C29.2694 6.04 29.6627 5.9 30.0894 5.9C30.3427 5.9 30.5694 5.95333 30.7694 6.06C30.9827 6.16667 31.1627 6.30667 31.3094 6.48C31.4694 6.65333 31.5894 6.84667 31.6694 7.06C31.7627 7.26 31.8094 7.46667 31.8094 7.68C31.8094 7.97333 31.716 8.24667 31.5294 8.5C31.356 8.74 31.0627 8.86 30.6494 8.86C30.3427 8.86 30.1294 8.79333 30.0094 8.66C29.8894 8.52667 29.796 8.38667 29.7294 8.24C29.6627 8.08 29.5894 7.93333 29.5094 7.8C29.4427 7.66667 29.316 7.6 29.1294 7.6C28.9294 7.6 28.7294 7.68 28.5294 7.84C28.3427 7.98667 28.1427 8.17333 27.9294 8.4V16H25.0494V6H27.9294ZM40.3889 6V17.6C40.3889 18.3067 40.3022 18.88 40.1289 19.32C39.9556 19.7733 39.7289 20.12 39.4489 20.36C39.1822 20.6133 38.8822 20.78 38.5489 20.86C38.2289 20.9533 37.9156 21 37.6089 21C37.2222 21 36.8556 20.9467 36.5089 20.84C36.1756 20.7333 35.8822 20.58 35.6289 20.38C35.3889 20.1933 35.1956 19.96 35.0489 19.68C34.9022 19.4 34.8289 19.0867 34.8289 18.74C34.8289 18.38 34.9022 18.0533 35.0489 17.76C35.2089 17.48 35.4156 17.2333 35.6689 17.02C35.9222 16.8067 36.2089 16.62 36.5289 16.46C36.8489 16.3133 37.1756 16.1867 37.5089 16.08V14.98C37.3356 15.2333 37.1489 15.4333 36.9489 15.58C36.7622 15.7267 36.5689 15.84 36.3689 15.92C36.1822 16 35.9889 16.0533 35.7889 16.08C35.6022 16.1067 35.4222 16.12 35.2489 16.12C34.3022 16.12 33.6156 15.84 33.1889 15.28C32.7756 14.72 32.5689 13.9667 32.5689 13.02V6H35.4489V12.8C35.4489 13.3067 35.5156 13.6667 35.6489 13.88C35.7956 14.08 36.0022 14.18 36.2689 14.18C36.6289 14.18 36.9156 14.0133 37.1289 13.68C37.3422 13.3467 37.4689 12.9267 37.5089 12.42V6H40.3889ZM35.8889 18.56C35.8889 18.8267 35.9756 19.04 36.1489 19.2C36.3356 19.36 36.5222 19.44 36.7089 19.44C36.9489 19.44 37.1422 19.2933 37.2889 19C37.4356 18.7067 37.5089 18.26 37.5089 17.66V17.08C37.0556 17.2667 36.6689 17.48 36.3489 17.72C36.0422 17.96 35.8889 18.24 35.8889 18.56ZM52.8773 12.6C52.7307 13.2 52.4907 13.7333 52.1573 14.2C51.8373 14.6533 51.444 15.04 50.9773 15.36C50.524 15.68 50.0107 15.92 49.4373 16.08C48.8773 16.24 48.284 16.32 47.6573 16.32C45.9373 16.32 44.5973 15.7133 43.6373 14.5C42.6907 13.2867 42.2173 11.4533 42.2173 9C42.2173 8.09333 42.2973 7.16667 42.4573 6.22C42.6173 5.27333 42.8973 4.41333 43.2973 3.64C43.6973 2.86667 44.2307 2.23333 44.8973 1.74C45.5773 1.24667 46.4307 0.999999 47.4573 0.999999C47.9507 0.999999 48.4307 1.06667 48.8973 1.2C49.364 1.32 49.7707 1.51333 50.1173 1.78C50.4773 2.03333 50.764 2.36 50.9773 2.76C51.1907 3.16 51.2973 3.62667 51.2973 4.16C51.2973 4.56 51.2173 4.88667 51.0573 5.14C50.9107 5.39333 50.6307 5.52 50.2173 5.52C50.0573 5.52 49.864 5.49333 49.6373 5.44C49.424 5.37333 49.1973 5.22667 48.9573 5C49.1307 4.89333 49.2707 4.7 49.3773 4.42C49.484 4.12667 49.5373 3.84 49.5373 3.56C49.5373 3.13333 49.4107 2.76 49.1573 2.44C48.904 2.10667 48.564 1.94 48.1373 1.94C47.684 1.94 47.2907 2.13333 46.9573 2.52C46.624 2.90667 46.344 3.42 46.1173 4.06C45.904 4.68667 45.744 5.40667 45.6373 6.22C45.5307 7.02 45.4773 7.84 45.4773 8.68C45.4773 9.78667 45.564 10.7133 45.7373 11.46C45.924 12.2067 46.1707 12.8067 46.4773 13.26C46.784 13.7133 47.144 14.0333 47.5573 14.22C47.984 14.4067 48.4373 14.5 48.9173 14.5C49.6773 14.5 50.3573 14.3133 50.9573 13.94C51.5707 13.5533 52.044 13.04 52.3773 12.4L52.8773 12.6ZM56.875 14.44C57.275 14.44 57.6283 14.3867 57.935 14.28C58.2417 14.1733 58.515 14.0333 58.755 13.86C58.995 13.6733 59.215 13.46 59.415 13.22C59.615 12.9667 59.8083 12.7 59.995 12.42H60.675C60.4883 12.8867 60.2617 13.34 59.995 13.78C59.7417 14.22 59.4217 14.6133 59.035 14.96C58.6617 15.3067 58.2217 15.5867 57.715 15.8C57.2083 16.0133 56.615 16.12 55.935 16.12C55.3617 16.12 54.835 16.0333 54.355 15.86C53.875 15.6867 53.455 15.42 53.095 15.06C52.7483 14.6867 52.475 14.2133 52.275 13.64C52.0883 13.0533 51.995 12.3533 51.995 11.54C51.995 10.9667 52.055 10.3533 52.175 9.7C52.3083 9.03333 52.535 8.42 52.855 7.86C53.175 7.3 53.6083 6.83333 54.155 6.46C54.7017 6.08667 55.395 5.9 56.235 5.9C56.875 5.9 57.3683 6 57.715 6.2C58.0617 6.4 58.315 6.63333 58.475 6.9C58.6483 7.16667 58.7483 7.42667 58.775 7.68C58.815 7.93333 58.835 8.11333 58.835 8.22C58.835 8.82 58.7217 9.34667 58.495 9.8C58.2817 10.2533 57.9883 10.64 57.615 10.96C57.255 11.2667 56.835 11.5067 56.355 11.68C55.8883 11.84 55.4083 11.9333 54.915 11.96C54.9283 12.8533 55.075 13.4933 55.355 13.88C55.6483 14.2533 56.155 14.44 56.875 14.44ZM57.295 8.24C57.295 7.77333 57.215 7.44667 57.055 7.26C56.895 7.06 56.7217 6.96 56.535 6.96C56.3083 6.96 56.1017 7.07333 55.915 7.3C55.7283 7.51333 55.5617 7.80667 55.415 8.18C55.2817 8.54 55.1683 8.96667 55.075 9.46C54.995 9.95333 54.9417 10.4667 54.915 11C55.2483 10.9733 55.5617 10.8867 55.855 10.74C56.1483 10.58 56.4017 10.38 56.615 10.14C56.8283 9.88667 56.995 9.6 57.115 9.28C57.235 8.96 57.295 8.61333 57.295 8.24ZM65.0908 9.96C65.0908 9.16 64.9974 8.59333 64.8108 8.26C64.6374 7.91333 64.3841 7.74 64.0508 7.74C63.8508 7.74 63.6774 7.79333 63.5308 7.9C63.3974 8.00667 63.2841 8.14667 63.1908 8.32C63.0974 8.49333 63.0241 8.69333 62.9708 8.92C62.9174 9.13333 62.8841 9.35333 62.8708 9.58V16H59.9908V6H62.8708V7.04C63.1774 6.57333 63.5241 6.27333 63.9108 6.14C64.2974 5.99333 64.6641 5.92 65.0108 5.92C65.3841 5.92 65.7374 5.98 66.0708 6.1C66.4174 6.22 66.7174 6.42667 66.9708 6.72C67.2374 7 67.4441 7.38 67.5908 7.86C67.7374 8.32667 67.8108 8.90667 67.8108 9.6C67.8108 9.77333 67.8041 9.99333 67.7908 10.26C67.7908 10.5133 67.7841 10.7733 67.7708 11.04C67.7574 11.3067 67.7441 11.5667 67.7308 11.82C67.7308 12.0733 67.7308 12.2867 67.7308 12.46C67.7308 13.0333 67.7908 13.4667 67.9108 13.76C68.0308 14.04 68.2974 14.18 68.7108 14.18C69.1641 14.18 69.4774 14.0133 69.6508 13.68C69.8374 13.3467 69.9841 12.9267 70.0908 12.42H70.9308C70.8241 13.22 70.6641 13.8667 70.4508 14.36C70.2374 14.84 69.9974 15.2133 69.7308 15.48C69.4641 15.7333 69.1774 15.9067 68.8708 16C68.5641 16.08 68.2641 16.12 67.9708 16.12C66.9441 16.12 66.1974 15.78 65.7308 15.1C65.2774 14.42 65.0508 13.5133 65.0508 12.38C65.0508 12.26 65.0508 12.0933 65.0508 11.88C65.0641 11.6533 65.0708 11.42 65.0708 11.18C65.0708 10.94 65.0708 10.7133 65.0708 10.5C65.0841 10.2733 65.0908 10.0933 65.0908 9.96ZM73.0484 2.84V6H74.2484V6.8H73.0484V12.8C73.0484 13.36 73.1218 13.7333 73.2684 13.92C73.4284 14.0933 73.7018 14.18 74.0884 14.18C74.2351 14.18 74.3484 14.1667 74.4284 14.14C74.5218 14.1 74.5951 14.06 74.6484 14.02C74.6618 14.0867 74.6684 14.16 74.6684 14.24C74.6684 14.3067 74.6684 14.3733 74.6684 14.44C74.6684 15 74.5018 15.42 74.1684 15.7C73.8484 15.98 73.4418 16.12 72.9484 16.12C71.9218 16.12 71.2018 15.84 70.7884 15.28C70.3751 14.7067 70.1684 13.9533 70.1684 13.02V6.8H69.5284V6H70.1684V3.24L73.0484 2.84Z" fill="#F9BC60"/>
</svg>
