<svg width="27" height="27" viewBox="0 0 27 27" fill="none" xmlns="http://www.w3.org/2000/svg">
<path d="M1 12.8125C0.447715 12.8125 0 13.2602 0 13.8125C0 14.3648 0.447715 14.8125 1 14.8125V12.8125ZM18.6714 14.5196C19.0619 14.1291 19.0619 13.4959 18.6714 13.1054L12.3074 6.74143C11.9169 6.35091 11.2837 6.35091 10.8932 6.74143C10.5027 7.13196 10.5027 7.76512 10.8932 8.15565L16.5501 13.8125L10.8932 19.4694C10.5027 19.8599 10.5027 20.493 10.8932 20.8836C11.2837 21.2741 11.9169 21.2741 12.3074 20.8836L18.6714 14.5196ZM1 14.8125H17.9643V12.8125H1V14.8125Z" fill="#F9BC60"/>
<path d="M7.90155 1.9375H26" stroke="#F9BC60" stroke-width="3"/>
<path d="M7.90155 25.375H26" stroke="#F9BC60" stroke-width="3"/>
<line x1="25.3282" y1="1" x2="25.3282" y2="26" stroke="#F9BC60" stroke-width="3"/>
</svg>
