<svg width="50" height="50" viewBox="0 0 50 50" fill="none" xmlns="http://www.w3.org/2000/svg">
<g clip-path="url(#clip0_3_11)">
<g clip-path="url(#clip1_3_11)">
<path d="M25 0C11.1688 0 0 11.2032 0 25C0 38.8127 11.1894 50 25 50C38.8727 50 50 38.7598 50 25C50 11.1707 38.7886 0 25 0ZM37.865 39.7244C34.3014 42.8473 29.7821 44.5534 25 44.5534C20.2187 44.5534 15.7002 42.8478 12.1369 39.7261C11.6549 39.3039 11.437 38.6549 11.5656 38.0271C12.7965 32.0146 16.6263 27.2728 21.5012 25.7126C18.9573 24.2068 17.2113 21.113 17.2113 17.5381C17.2113 12.4845 20.6985 8.3878 25 8.3878C29.3015 8.3878 32.7887 12.4845 32.7887 17.5381C32.7887 21.1124 31.0432 24.2058 28.5001 25.7119C33.3749 27.2717 37.2048 32.0134 38.4362 38.0254C38.5646 38.6523 38.3463 39.3026 37.865 39.7244Z" fill="#F9BC60"/>
</g>
</g>
<defs>
<clipPath id="clip0_3_11">
<rect width="50" height="50" fill="white"/>
</clipPath>
<clipPath id="clip1_3_11">
<rect width="50" height="50" fill="white"/>
</clipPath>
</defs>
</svg>
