<svg width="100" height="36" viewBox="0 0 100 36" fill="none" xmlns="http://www.w3.org/2000/svg">
<path d="M27.4727 21.5811C27.4727 22.3428 27.2822 22.9932 26.9014 23.5322C26.5264 24.0654 25.999 24.4727 25.3193 24.7539C24.6396 25.0352 23.8398 25.1758 22.9199 25.1758C22.4336 25.1758 21.9736 25.1523 21.54 25.1055C21.1064 25.0586 20.708 24.9912 20.3447 24.9033C19.9814 24.8154 19.6621 24.707 19.3867 24.5781V23.1455C19.8262 23.3271 20.3623 23.4971 20.9951 23.6553C21.6279 23.8076 22.29 23.8838 22.9814 23.8838C23.626 23.8838 24.1709 23.7988 24.6162 23.6289C25.0615 23.4531 25.3984 23.2041 25.627 22.8818C25.8613 22.5537 25.9785 22.1611 25.9785 21.7041C25.9785 21.2646 25.8818 20.8984 25.6885 20.6055C25.4951 20.3066 25.1729 20.0371 24.7217 19.7969C24.2764 19.5508 23.667 19.29 22.8936 19.0146C22.3486 18.8213 21.8682 18.6104 21.4521 18.3818C21.0361 18.1475 20.6875 17.8838 20.4062 17.5908C20.125 17.2979 19.9111 16.958 19.7646 16.5713C19.624 16.1846 19.5537 15.7422 19.5537 15.2441C19.5537 14.5586 19.7266 13.9727 20.0723 13.4863C20.4238 12.9941 20.9072 12.6191 21.5225 12.3613C22.1436 12.0977 22.8555 11.9658 23.6582 11.9658C24.3438 11.9658 24.9766 12.0303 25.5566 12.1592C26.1426 12.2881 26.6787 12.4609 27.165 12.6777L26.6992 13.9609C26.2363 13.7676 25.7441 13.6064 25.2227 13.4775C24.707 13.3486 24.1738 13.2842 23.623 13.2842C23.0723 13.2842 22.6064 13.3662 22.2256 13.5303C21.8506 13.6885 21.5635 13.9141 21.3643 14.207C21.165 14.5 21.0654 14.8486 21.0654 15.2529C21.0654 15.7041 21.1592 16.0791 21.3467 16.3779C21.54 16.6768 21.8447 16.9434 22.2607 17.1777C22.6826 17.4062 23.2393 17.6465 23.9307 17.8984C24.6865 18.1738 25.3281 18.4668 25.8555 18.7773C26.3828 19.082 26.7842 19.457 27.0596 19.9023C27.335 20.3418 27.4727 20.9014 27.4727 21.5811ZM31.3398 15.3672V25H29.8809V15.3672H31.3398ZM30.6279 11.7637C30.8682 11.7637 31.0732 11.8428 31.2432 12.001C31.4189 12.1533 31.5068 12.3936 31.5068 12.7217C31.5068 13.0439 31.4189 13.2842 31.2432 13.4424C31.0732 13.6006 30.8682 13.6797 30.6279 13.6797C30.376 13.6797 30.165 13.6006 29.9951 13.4424C29.8311 13.2842 29.749 13.0439 29.749 12.7217C29.749 12.3936 29.8311 12.1533 29.9951 12.001C30.165 11.8428 30.376 11.7637 30.6279 11.7637ZM37.123 29.3242C35.8574 29.3242 34.8818 29.0869 34.1963 28.6123C33.5107 28.1436 33.168 27.4844 33.168 26.6348C33.168 26.0312 33.3584 25.5156 33.7393 25.0879C34.126 24.6602 34.6592 24.376 35.3389 24.2354C35.0869 24.1182 34.8701 23.9424 34.6885 23.708C34.5127 23.4736 34.4248 23.2041 34.4248 22.8994C34.4248 22.5479 34.5215 22.2402 34.7148 21.9766C34.9141 21.707 35.2158 21.4492 35.6201 21.2031C35.1162 20.998 34.7061 20.6523 34.3896 20.166C34.0791 19.6738 33.9238 19.1025 33.9238 18.4521C33.9238 17.7607 34.0674 17.1719 34.3545 16.6855C34.6416 16.1934 35.0576 15.8184 35.6025 15.5605C36.1475 15.3027 36.8066 15.1738 37.5801 15.1738C37.75 15.1738 37.9199 15.1826 38.0898 15.2002C38.2656 15.2119 38.4326 15.2324 38.5908 15.2617C38.749 15.2852 38.8867 15.3145 39.0039 15.3496H42.3086V16.29L40.5332 16.5098C40.709 16.7383 40.8555 17.0137 40.9727 17.3359C41.0898 17.6582 41.1484 18.0156 41.1484 18.4082C41.1484 19.3691 40.8232 20.1338 40.1729 20.7021C39.5225 21.2646 38.6289 21.5459 37.4922 21.5459C37.2227 21.5459 36.9473 21.5225 36.666 21.4756C36.3789 21.6338 36.1592 21.8096 36.0068 22.0029C35.8604 22.1963 35.7871 22.4189 35.7871 22.6709C35.7871 22.8584 35.8428 23.0078 35.9541 23.1191C36.0713 23.2305 36.2383 23.3125 36.4551 23.3652C36.6719 23.4121 36.9326 23.4355 37.2373 23.4355H38.9336C39.9824 23.4355 40.7852 23.6553 41.3418 24.0947C41.9043 24.5342 42.1855 25.1758 42.1855 26.0195C42.1855 27.0859 41.752 27.9033 40.8848 28.4717C40.0176 29.04 38.7637 29.3242 37.123 29.3242ZM37.167 28.1816C37.9639 28.1816 38.623 28.0996 39.1445 27.9355C39.6719 27.7773 40.0645 27.5459 40.3223 27.2412C40.5859 26.9424 40.7178 26.585 40.7178 26.1689C40.7178 25.7822 40.6299 25.4893 40.4541 25.29C40.2783 25.0967 40.0205 24.9678 39.6807 24.9033C39.3408 24.833 38.9248 24.7979 38.4326 24.7979H36.7627C36.3291 24.7979 35.9512 24.8652 35.6289 25C35.3066 25.1348 35.0576 25.334 34.8818 25.5977C34.7119 25.8613 34.627 26.1895 34.627 26.582C34.627 27.1035 34.8467 27.499 35.2861 27.7686C35.7256 28.0439 36.3525 28.1816 37.167 28.1816ZM37.5449 20.4824C38.2422 20.4824 38.7666 20.3066 39.1182 19.9551C39.4697 19.6035 39.6455 19.0908 39.6455 18.417C39.6455 17.6963 39.4668 17.1572 39.1094 16.7998C38.752 16.4365 38.2246 16.2549 37.5273 16.2549C36.8594 16.2549 36.3438 16.4424 35.9805 16.8174C35.623 17.1865 35.4443 17.7285 35.4443 18.4434C35.4443 19.0996 35.626 19.6035 35.9893 19.9551C36.3525 20.3066 36.8711 20.4824 37.5449 20.4824ZM48.7686 15.1914C49.9111 15.1914 50.7754 15.4727 51.3613 16.0352C51.9473 16.5918 52.2402 17.4883 52.2402 18.7246V25H50.7988V18.8213C50.7988 18.0186 50.6143 17.418 50.2451 17.0195C49.8818 16.6211 49.3223 16.4219 48.5664 16.4219C47.5 16.4219 46.75 16.7236 46.3164 17.3271C45.8828 17.9307 45.666 18.8066 45.666 19.9551V25H44.207V15.3672H45.3848L45.6045 16.7559H45.6836C45.8887 16.416 46.1494 16.1318 46.4658 15.9033C46.7822 15.6689 47.1367 15.4932 47.5293 15.376C47.9219 15.2529 48.335 15.1914 48.7686 15.1914ZM69.8623 12.1504V20.4648C69.8623 21.373 69.6777 22.1816 69.3086 22.8906C68.9453 23.5996 68.3945 24.1592 67.6562 24.5693C66.918 24.9736 65.9922 25.1758 64.8789 25.1758C63.291 25.1758 62.0811 24.7451 61.249 23.8838C60.4229 23.0225 60.0098 21.8711 60.0098 20.4297V12.1504H61.5127V20.4736C61.5127 21.5635 61.7998 22.4043 62.374 22.9961C62.9541 23.5879 63.8184 23.8838 64.9668 23.8838C65.752 23.8838 66.3936 23.7432 66.8916 23.4619C67.3955 23.1748 67.7676 22.7764 68.0078 22.2666C68.2539 21.751 68.377 21.1562 68.377 20.4824V12.1504H69.8623ZM77.5791 15.1914C78.7803 15.1914 79.7383 15.6045 80.4531 16.4307C81.168 17.2568 81.5254 18.499 81.5254 20.1572C81.5254 21.2529 81.3613 22.1729 81.0332 22.917C80.7051 23.6611 80.2422 24.2236 79.6445 24.6045C79.0527 24.9854 78.3525 25.1758 77.5439 25.1758C77.0342 25.1758 76.5859 25.1084 76.1992 24.9736C75.8125 24.8389 75.4814 24.6572 75.2061 24.4287C74.9307 24.2002 74.7021 23.9512 74.5205 23.6816H74.415C74.4326 23.9102 74.4531 24.1855 74.4766 24.5078C74.5059 24.8301 74.5205 25.1113 74.5205 25.3516V29.3066H73.0527V15.3672H74.2568L74.4502 16.791H74.5205C74.708 16.498 74.9365 16.2314 75.2061 15.9912C75.4756 15.7451 75.8037 15.5518 76.1904 15.4111C76.583 15.2646 77.0459 15.1914 77.5791 15.1914ZM77.3242 16.4219C76.6562 16.4219 76.1172 16.5508 75.707 16.8086C75.3027 17.0664 75.0068 17.4531 74.8193 17.9688C74.6318 18.4785 74.5322 19.1201 74.5205 19.8936V20.1748C74.5205 20.9893 74.6084 21.6777 74.7842 22.2402C74.9658 22.8027 75.2617 23.2305 75.6719 23.5234C76.0879 23.8164 76.6445 23.9629 77.3418 23.9629C77.9395 23.9629 78.4375 23.8018 78.8359 23.4795C79.2344 23.1572 79.5303 22.709 79.7236 22.1348C79.9229 21.5547 80.0225 20.8896 80.0225 20.1396C80.0225 19.0029 79.7998 18.1006 79.3545 17.4326C78.915 16.7588 78.2383 16.4219 77.3242 16.4219Z" fill="#E16162"/>
<rect opacity="0.5" x="0.5" y="0.5" width="99" height="35" rx="17.5" stroke="#E16162"/>
</svg>
