<svg width="100" height="36" viewBox="0 0 100 36" fill="none" xmlns="http://www.w3.org/2000/svg">
<path d="M25.8838 25V12.1504H27.3779V23.6641H33.082V25H25.8838ZM43.374 20.166C43.374 20.957 43.2715 21.6631 43.0664 22.2842C42.8613 22.9053 42.5654 23.4297 42.1787 23.8574C41.792 24.2852 41.3232 24.6133 40.7725 24.8418C40.2275 25.0645 39.6094 25.1758 38.918 25.1758C38.2734 25.1758 37.6816 25.0645 37.1426 24.8418C36.6094 24.6133 36.1465 24.2852 35.7539 23.8574C35.3672 23.4297 35.0654 22.9053 34.8486 22.2842C34.6377 21.6631 34.5322 20.957 34.5322 20.166C34.5322 19.1113 34.7109 18.2148 35.0684 17.4766C35.4258 16.7324 35.9355 16.167 36.5977 15.7803C37.2656 15.3877 38.0596 15.1914 38.9795 15.1914C39.8584 15.1914 40.626 15.3877 41.2822 15.7803C41.9443 16.1729 42.457 16.7412 42.8203 17.4854C43.1895 18.2236 43.374 19.1172 43.374 20.166ZM36.0439 20.166C36.0439 20.9395 36.1465 21.6104 36.3516 22.1787C36.5566 22.7471 36.873 23.1865 37.3008 23.4971C37.7285 23.8076 38.2793 23.9629 38.9531 23.9629C39.6211 23.9629 40.1689 23.8076 40.5967 23.4971C41.0303 23.1865 41.3496 22.7471 41.5547 22.1787C41.7598 21.6104 41.8623 20.9395 41.8623 20.166C41.8623 19.3984 41.7598 18.7363 41.5547 18.1797C41.3496 17.6172 41.0332 17.1836 40.6055 16.8789C40.1777 16.5742 39.624 16.4219 38.9443 16.4219C37.9424 16.4219 37.207 16.7529 36.7383 17.415C36.2754 18.0771 36.0439 18.9941 36.0439 20.166ZM48.5859 29.3242C47.3203 29.3242 46.3447 29.0869 45.6592 28.6123C44.9736 28.1436 44.6309 27.4844 44.6309 26.6348C44.6309 26.0312 44.8213 25.5156 45.2021 25.0879C45.5889 24.6602 46.1221 24.376 46.8018 24.2354C46.5498 24.1182 46.333 23.9424 46.1514 23.708C45.9756 23.4736 45.8877 23.2041 45.8877 22.8994C45.8877 22.5479 45.9844 22.2402 46.1777 21.9766C46.377 21.707 46.6787 21.4492 47.083 21.2031C46.5791 20.998 46.1689 20.6523 45.8525 20.166C45.542 19.6738 45.3867 19.1025 45.3867 18.4521C45.3867 17.7607 45.5303 17.1719 45.8174 16.6855C46.1045 16.1934 46.5205 15.8184 47.0654 15.5605C47.6104 15.3027 48.2695 15.1738 49.043 15.1738C49.2129 15.1738 49.3828 15.1826 49.5527 15.2002C49.7285 15.2119 49.8955 15.2324 50.0537 15.2617C50.2119 15.2852 50.3496 15.3145 50.4668 15.3496H53.7715V16.29L51.9961 16.5098C52.1719 16.7383 52.3184 17.0137 52.4355 17.3359C52.5527 17.6582 52.6113 18.0156 52.6113 18.4082C52.6113 19.3691 52.2861 20.1338 51.6357 20.7021C50.9854 21.2646 50.0918 21.5459 48.9551 21.5459C48.6855 21.5459 48.4102 21.5225 48.1289 21.4756C47.8418 21.6338 47.6221 21.8096 47.4697 22.0029C47.3232 22.1963 47.25 22.4189 47.25 22.6709C47.25 22.8584 47.3057 23.0078 47.417 23.1191C47.5342 23.2305 47.7012 23.3125 47.918 23.3652C48.1348 23.4121 48.3955 23.4355 48.7002 23.4355H50.3965C51.4453 23.4355 52.248 23.6553 52.8047 24.0947C53.3672 24.5342 53.6484 25.1758 53.6484 26.0195C53.6484 27.0859 53.2148 27.9033 52.3477 28.4717C51.4805 29.04 50.2266 29.3242 48.5859 29.3242ZM48.6299 28.1816C49.4268 28.1816 50.0859 28.0996 50.6074 27.9355C51.1348 27.7773 51.5273 27.5459 51.7852 27.2412C52.0488 26.9424 52.1807 26.585 52.1807 26.1689C52.1807 25.7822 52.0928 25.4893 51.917 25.29C51.7412 25.0967 51.4834 24.9678 51.1436 24.9033C50.8037 24.833 50.3877 24.7979 49.8955 24.7979H48.2256C47.792 24.7979 47.4141 24.8652 47.0918 25C46.7695 25.1348 46.5205 25.334 46.3447 25.5977C46.1748 25.8613 46.0898 26.1895 46.0898 26.582C46.0898 27.1035 46.3096 27.499 46.749 27.7686C47.1885 28.0439 47.8154 28.1816 48.6299 28.1816ZM49.0078 20.4824C49.7051 20.4824 50.2295 20.3066 50.5811 19.9551C50.9326 19.6035 51.1084 19.0908 51.1084 18.417C51.1084 17.6963 50.9297 17.1572 50.5723 16.7998C50.2148 16.4365 49.6875 16.2549 48.9902 16.2549C48.3223 16.2549 47.8066 16.4424 47.4434 16.8174C47.0859 17.1865 46.9072 17.7285 46.9072 18.4434C46.9072 19.0996 47.0889 19.6035 47.4521 19.9551C47.8154 20.3066 48.334 20.4824 49.0078 20.4824ZM60.5654 25V12.1504H62.0596V25H60.5654ZM69.9346 15.1914C71.0771 15.1914 71.9414 15.4727 72.5273 16.0352C73.1133 16.5918 73.4062 17.4883 73.4062 18.7246V25H71.9648V18.8213C71.9648 18.0186 71.7803 17.418 71.4111 17.0195C71.0479 16.6211 70.4883 16.4219 69.7324 16.4219C68.666 16.4219 67.916 16.7236 67.4824 17.3271C67.0488 17.9307 66.832 18.8066 66.832 19.9551V25H65.373V15.3672H66.5508L66.7705 16.7559H66.8496C67.0547 16.416 67.3154 16.1318 67.6318 15.9033C67.9482 15.6689 68.3027 15.4932 68.6953 15.376C69.0879 15.2529 69.501 15.1914 69.9346 15.1914Z" fill="#FEF6ED"/>
<rect opacity="0.5" x="0.5" y="0.5" width="99" height="35" rx="17.5" stroke="#FEF6ED"/>
</svg>
