<svg width="60" height="26" viewBox="0 0 60 26" fill="none" xmlns="http://www.w3.org/2000/svg">
<rect width="60" height="26" rx="13" fill="#E16162"/>
<path d="M14.9882 19.144C14.2629 19.144 13.6122 19.016 13.0362 18.76C12.4602 18.4933 12.0015 18.136 11.6602 17.688C11.3295 17.24 11.1482 16.744 11.1162 16.2H13.3722C13.4149 16.5413 13.5802 16.824 13.8682 17.048C14.1669 17.272 14.5349 17.384 14.9722 17.384C15.3989 17.384 15.7295 17.2987 15.9642 17.128C16.2095 16.9573 16.3322 16.7387 16.3322 16.472C16.3322 16.184 16.1829 15.9707 15.8842 15.832C15.5962 15.6827 15.1322 15.5227 14.4922 15.352C13.8309 15.192 13.2869 15.0267 12.8602 14.856C12.4442 14.6853 12.0815 14.424 11.7722 14.072C11.4735 13.72 11.3242 13.2453 11.3242 12.648C11.3242 12.1573 11.4629 11.7093 11.7402 11.304C12.0282 10.8987 12.4335 10.5787 12.9562 10.344C13.4895 10.1093 14.1135 9.992 14.8282 9.992C15.8842 9.992 16.7269 10.2587 17.3562 10.792C17.9855 11.3147 18.3322 12.024 18.3962 12.92H16.2522C16.2202 12.568 16.0709 12.2907 15.8042 12.088C15.5482 11.8747 15.2015 11.768 14.7642 11.768C14.3589 11.768 14.0442 11.8427 13.8202 11.992C13.6069 12.1413 13.5002 12.3493 13.5002 12.616C13.5002 12.9147 13.6495 13.144 13.9482 13.304C14.2469 13.4533 14.7109 13.608 15.3402 13.768C15.9802 13.928 16.5082 14.0933 16.9242 14.264C17.3402 14.4347 17.6975 14.7013 17.9962 15.064C18.3055 15.416 18.4655 15.8853 18.4762 16.472C18.4762 16.984 18.3322 17.4427 18.0442 17.848C17.7669 18.2533 17.3615 18.5733 16.8282 18.808C16.3055 19.032 15.6922 19.144 14.9882 19.144ZM19.7389 14.536C19.7389 13.64 19.9149 12.8453 20.2669 12.152C20.6296 11.4587 21.1149 10.9253 21.7229 10.552C22.3416 10.1787 23.0296 9.992 23.7869 9.992C24.4483 9.992 25.0243 10.1253 25.5149 10.392C26.0163 10.6587 26.4163 10.9947 26.7149 11.4V10.136H28.9709V19H26.7149V17.704C26.4269 18.12 26.0269 18.4667 25.5149 18.744C25.0136 19.0107 24.4323 19.144 23.7709 19.144C23.0243 19.144 22.3416 18.952 21.7229 18.568C21.1149 18.184 20.6296 17.6453 20.2669 16.952C19.9149 16.248 19.7389 15.4427 19.7389 14.536ZM26.7149 14.568C26.7149 14.024 26.6083 13.56 26.3949 13.176C26.1816 12.7813 25.8936 12.4827 25.5309 12.28C25.1683 12.0667 24.7789 11.96 24.3629 11.96C23.9469 11.96 23.5629 12.0613 23.2109 12.264C22.8589 12.4667 22.5709 12.7653 22.3469 13.16C22.1336 13.544 22.0269 14.0027 22.0269 14.536C22.0269 15.0693 22.1336 15.5387 22.3469 15.944C22.5709 16.3387 22.8589 16.6427 23.2109 16.856C23.5736 17.0693 23.9576 17.176 24.3629 17.176C24.7789 17.176 25.1683 17.0747 25.5309 16.872C25.8936 16.6587 26.1816 16.36 26.3949 15.976C26.6083 15.5813 26.7149 15.112 26.7149 14.568ZM34.8547 16.936L37.0947 10.136H39.4787L36.1987 19H33.4787L30.2147 10.136H32.6147L34.8547 16.936ZM48.9768 14.376C48.9768 14.696 48.9555 14.984 48.9128 15.24H42.4328C42.4861 15.88 42.7101 16.3813 43.1048 16.744C43.4995 17.1067 43.9848 17.288 44.5608 17.288C45.3928 17.288 45.9848 16.9307 46.3368 16.216H48.7528C48.4968 17.0693 48.0061 17.7733 47.2808 18.328C46.5555 18.872 45.6648 19.144 44.6088 19.144C43.7555 19.144 42.9875 18.9573 42.3048 18.584C41.6328 18.2 41.1048 17.6613 40.7208 16.968C40.3475 16.2747 40.1608 15.4747 40.1608 14.568C40.1608 13.6507 40.3475 12.8453 40.7208 12.152C41.0941 11.4587 41.6168 10.9253 42.2888 10.552C42.9608 10.1787 43.7341 9.992 44.6088 9.992C45.4515 9.992 46.2035 10.1733 46.8648 10.536C47.5368 10.8987 48.0541 11.416 48.4168 12.088C48.7901 12.7493 48.9768 13.512 48.9768 14.376ZM46.6568 13.736C46.6461 13.16 46.4381 12.7013 46.0328 12.36C45.6275 12.008 45.1315 11.832 44.5448 11.832C43.9901 11.832 43.5208 12.0027 43.1368 12.344C42.7635 12.6747 42.5341 13.1387 42.4488 13.736H46.6568Z" fill="#004643"/>
</svg>
